<?xml version="1.0" encoding="iso-8859-1"?>
<!-- Uploaded to: SVG Repo, www.svgrepo.com, Generator: SVG Repo Mixer Tools -->
<svg fill="#000000" height="800px" width="800px" version="1.1" id="Layer_1" xmlns="http://www.w3.org/2000/svg" xmlns:xlink="http://www.w3.org/1999/xlink" 
	 viewBox="0 0 490 490" xml:space="preserve">
<g>
	<g>
		<path d="M489.456,469.2V47.9c0-26-21.8-47.9-47.9-47.9h-393.2c-26,0-47.9,21.8-47.9,47.9v421.3c0,11.4,9.4,20.8,20.8,20.8h156.1
			c11.4,0,20.8-9.4,20.8-20.8V327.7c0-4.2,3.1-7.3,7.3-7.3h80.1c4.2,0,7.3,3.1,7.3,7.3v140.4c0,11.4,9.4,20.8,20.8,20.8h156.1
			C481.156,489,490.556,479.6,489.456,469.2z M449.956,448.4h-115.5h-1V327.7c0-26-21.8-47.9-47.9-47.9h-80.1
			c-26,0-47.9,21.8-47.9,47.9v120.7h-115.4V47.9c0-4.2,3.1-7.3,7.3-7.3h393.2c4.2,0,7.3,3.1,7.3,7.3V448.4z"/>
		<polygon points="261.656,103 230.456,103 230.456,70.7 212.756,70.7 212.756,148.8 230.456,148.8 230.456,117.6 261.656,117.6 
			261.656,148.8 279.356,148.8 279.356,70.7 261.656,70.7 		"/>
		<path d="M123.256,128h-18.7c-11.4,0-20.8,9.4-20.8,20.8s9.4,20.8,20.8,20.8h18.7c11.4,0,19.8-9.4,20.8-20.8
			C144.056,137.3,134.756,128,123.256,128z"/>
		<path d="M123.256,219.5h-18.7c-11.4,0-20.8,9.4-20.8,20.8s9.4,20.8,20.8,20.8h18.7c11.4,0,20.8-9.4,20.8-20.8
			S134.756,219.5,123.256,219.5z"/>
		<path d="M387.556,128h-18.7c-11.4,0-20.8,9.4-20.8,20.8s9.4,20.8,20.8,20.8h18.7c11.4,0,20.8-9.4,20.8-20.8
			S398.956,128,387.556,128z"/>
		<path d="M387.556,219.5h-18.7c-11.4,0-20.8,9.4-20.8,20.8s9.4,20.8,20.8,20.8h18.7c11.4,0,20.8-9.4,20.8-20.8
			S398.956,219.5,387.556,219.5z"/>
	</g>
</g>
</svg>